<?xml version="1.0" encoding="UTF-8" standalone="no"?>
<!DOCTYPE svg PUBLIC "-//W3C//DTD SVG 1.1//EN"
 "http://www.w3.org/Graphics/SVG/1.1/DTD/svg11.dtd">
<!-- Generated by graphviz version 12.2.1 (20241206.2353)
 -->
<!-- Title: include/IPsolver.hh Pages: 1 -->
<svg width="226pt" height="138pt"
 viewBox="0.00 0.00 225.62 137.75" xmlns="http://www.w3.org/2000/svg" xmlns:xlink="http://www.w3.org/1999/xlink">
<g id="graph0" class="graph" transform="scale(1 1) rotate(0) translate(4 133.75)">
<title>include/IPsolver.hh</title>
<!-- Node1 -->
<g id="Node000001" class="node">
<title>Node1</title>
<g id="a_Node000001"><a xlink:title=" ">
<polygon fill="#999999" stroke="#666666" points="116,-129.75 17.5,-129.75 17.5,-110.5 116,-110.5 116,-129.75"/>
<text text-anchor="middle" x="66.75" y="-116.25" font-family="Helvetica,sans-Serif" font-size="10.00">include/IPsolver.hh</text>
</a>
</g>
</g>
<!-- Node2 -->
<g id="Node000002" class="node">
<title>Node2</title>
<g id="a_Node000002"><a xlink:title=" ">
<polygon fill="#e0e0e0" stroke="#999999" points="53.5,-19.25 0,-19.25 0,0 53.5,0 53.5,-19.25"/>
<text text-anchor="middle" x="26.75" y="-5.75" font-family="Helvetica,sans-Serif" font-size="10.00">iostream</text>
</a>
</g>
</g>
<!-- Node1&#45;&gt;Node2 -->
<g id="edge1_Node000001_Node000002" class="edge">
<title>Node1&#45;&gt;Node2</title>
<g id="a_edge1_Node000001_Node000002"><a xlink:title=" ">
<path fill="none" stroke="#63b8ff" d="M63.03,-110.29C59.29,-101.32 53.43,-87.02 48.75,-74.5 43.21,-59.68 37.4,-42.74 33.14,-30.04"/>
<polygon fill="#63b8ff" stroke="#63b8ff" points="36.55,-29.18 30.07,-20.79 29.9,-31.38 36.55,-29.18"/>
</a>
</g>
</g>
<!-- Node3 -->
<g id="Node000003" class="node">
<title>Node3</title>
<g id="a_Node000003"><a xlink:href="_solver_8hh.html" target="_top" xlink:title=" ">
<polygon fill="white" stroke="#666666" points="153.5,-74.5 58,-74.5 58,-55.25 153.5,-55.25 153.5,-74.5"/>
<text text-anchor="middle" x="105.75" y="-61" font-family="Helvetica,sans-Serif" font-size="10.00">IPsolver/Solver.hh</text>
</a>
</g>
</g>
<!-- Node1&#45;&gt;Node3 -->
<g id="edge2_Node000001_Node000003" class="edge">
<title>Node1&#45;&gt;Node3</title>
<g id="a_edge2_Node000001_Node000003"><a xlink:title=" ">
<path fill="none" stroke="#63b8ff" d="M73.19,-110.33C78.41,-103.21 85.94,-92.93 92.44,-84.05"/>
<polygon fill="#63b8ff" stroke="#63b8ff" points="95.19,-86.22 98.28,-76.08 89.54,-82.08 95.19,-86.22"/>
</a>
</g>
</g>
<!-- Node3&#45;&gt;Node2 -->
<g id="edge4_Node000003_Node000002" class="edge">
<title>Node3&#45;&gt;Node2</title>
<g id="a_edge4_Node000003_Node000002"><a xlink:title=" ">
<path fill="none" stroke="#63b8ff" d="M92.35,-54.84C80.66,-46.96 63.45,-35.36 49.59,-26.02"/>
<polygon fill="#63b8ff" stroke="#63b8ff" points="51.72,-23.24 41.47,-20.55 47.81,-29.04 51.72,-23.24"/>
</a>
</g>
</g>
<!-- Node4 -->
<g id="Node000004" class="node">
<title>Node4</title>
<g id="a_Node000004"><a xlink:title=" ">
<polygon fill="#e0e0e0" stroke="#999999" points="143.88,-19.25 71.62,-19.25 71.62,0 143.88,0 143.88,-19.25"/>
<text text-anchor="middle" x="107.75" y="-5.75" font-family="Helvetica,sans-Serif" font-size="10.00">Eigen/Dense</text>
</a>
</g>
</g>
<!-- Node3&#45;&gt;Node4 -->
<g id="edge3_Node000003_Node000004" class="edge">
<title>Node3&#45;&gt;Node4</title>
<g id="a_edge3_Node000003_Node000004"><a xlink:title=" ">
<path fill="none" stroke="#63b8ff" d="M106.08,-55.08C106.33,-48.49 106.68,-39.21 106.99,-30.82"/>
<polygon fill="#63b8ff" stroke="#63b8ff" points="110.48,-31.25 107.36,-21.12 103.48,-30.98 110.48,-31.25"/>
</a>
</g>
</g>
<!-- Node5 -->
<g id="Node000005" class="node">
<title>Node5</title>
<g id="a_Node000005"><a xlink:title=" ">
<polygon fill="#e0e0e0" stroke="#999999" points="217.62,-19.25 161.88,-19.25 161.88,0 217.62,0 217.62,-19.25"/>
<text text-anchor="middle" x="189.75" y="-5.75" font-family="Helvetica,sans-Serif" font-size="10.00">algorithm</text>
</a>
</g>
</g>
<!-- Node3&#45;&gt;Node5 -->
<g id="edge5_Node000003_Node000005" class="edge">
<title>Node3&#45;&gt;Node5</title>
<g id="a_edge5_Node000003_Node000005"><a xlink:title=" ">
<path fill="none" stroke="#63b8ff" d="M120,-54.84C132.55,-46.89 151.08,-35.14 165.89,-25.75"/>
<polygon fill="#63b8ff" stroke="#63b8ff" points="167.58,-28.82 174.15,-20.51 163.83,-22.91 167.58,-28.82"/>
</a>
</g>
</g>
</g>
</svg>
