<?xml version="1.0" encoding="UTF-8" standalone="no"?>
<!DOCTYPE svg PUBLIC "-//W3C//DTD SVG 1.1//EN"
 "http://www.w3.org/Graphics/SVG/1.1/DTD/svg11.dtd">
<!-- Generated by graphviz version 14.0.2 (20251019.1705)
 -->
<!-- Title: include/IPsolver.hh Pages: 1 -->
<svg width="487pt" height="193pt"
 viewBox="0.00 0.00 487.00 193.00" xmlns="http://www.w3.org/2000/svg" xmlns:xlink="http://www.w3.org/1999/xlink">
<g id="graph0" class="graph" transform="scale(1 1) rotate(0) translate(4 189)">
<title>include/IPsolver.hh</title>
<!-- Node1 -->
<g id="Node000001" class="node">
<title>Node1</title>
<g id="a_Node000001"><a xlink:title=" ">
<polygon fill="#999999" stroke="#666666" points="146,-185 47.5,-185 47.5,-165.75 146,-165.75 146,-185"/>
<text xml:space="preserve" text-anchor="middle" x="96.75" y="-171.5" font-family="Helvetica,sans-Serif" font-size="10.00">include/IPsolver.hh</text>
</a>
</g>
</g>
<!-- Node2 -->
<g id="Node000002" class="node">
<title>Node2</title>
<g id="a_Node000002"><a xlink:title=" ">
<polygon fill="#e0e0e0" stroke="#999999" points="53.5,-74.5 0,-74.5 0,-55.25 53.5,-55.25 53.5,-74.5"/>
<text xml:space="preserve" text-anchor="middle" x="26.75" y="-61" font-family="Helvetica,sans-Serif" font-size="10.00">iostream</text>
</a>
</g>
</g>
<!-- Node1&#45;&gt;Node2 -->
<g id="edge1_Node000001_Node000002" class="edge">
<title>Node1&#45;&gt;Node2</title>
<g id="a_edge1_Node000001_Node000002"><a xlink:title=" ">
<path fill="none" stroke="#63b8ff" d="M91.02,-165.5C79.64,-147.85 53.96,-108.05 38.73,-84.45"/>
<polygon fill="#63b8ff" stroke="#63b8ff" points="41.74,-82.65 33.38,-76.15 35.86,-86.45 41.74,-82.65"/>
</a>
</g>
</g>
<!-- Node3 -->
<g id="Node000003" class="node">
<title>Node3</title>
<g id="a_Node000003"><a xlink:href="_solver_8hh.html" target="_top" xlink:title=" ">
<polygon fill="white" stroke="#666666" points="198.5,-129.75 103,-129.75 103,-110.5 198.5,-110.5 198.5,-129.75"/>
<text xml:space="preserve" text-anchor="middle" x="150.75" y="-116.25" font-family="Helvetica,sans-Serif" font-size="10.00">IPsolver/Solver.hh</text>
</a>
</g>
</g>
<!-- Node1&#45;&gt;Node3 -->
<g id="edge2_Node000001_Node000003" class="edge">
<title>Node1&#45;&gt;Node3</title>
<g id="a_edge2_Node000001_Node000003"><a xlink:title=" ">
<path fill="none" stroke="#63b8ff" d="M105.67,-165.58C113.2,-158.15 124.22,-147.29 133.48,-138.16"/>
<polygon fill="#63b8ff" stroke="#63b8ff" points="135.9,-140.69 140.56,-131.17 130.98,-135.7 135.9,-140.69"/>
</a>
</g>
</g>
<!-- Node3&#45;&gt;Node2 -->
<g id="edge3_Node000003_Node000002" class="edge">
<title>Node3&#45;&gt;Node2</title>
<g id="a_edge3_Node000003_Node000002"><a xlink:title=" ">
<path fill="none" stroke="#63b8ff" d="M129.72,-110.09C110.12,-101.68 80.64,-89.02 58.24,-79.4"/>
<polygon fill="#63b8ff" stroke="#63b8ff" points="59.85,-76.28 49.28,-75.55 57.09,-82.71 59.85,-76.28"/>
</a>
</g>
</g>
<!-- Node4 -->
<g id="Node000004" class="node">
<title>Node4</title>
<g id="a_Node000004"><a xlink:title=" ">
<polygon fill="#e0e0e0" stroke="#999999" points="121.62,-74.5 71.88,-74.5 71.88,-55.25 121.62,-55.25 121.62,-74.5"/>
<text xml:space="preserve" text-anchor="middle" x="96.75" y="-61" font-family="Helvetica,sans-Serif" font-size="10.00">iomanip</text>
</a>
</g>
</g>
<!-- Node3&#45;&gt;Node4 -->
<g id="edge4_Node000003_Node000004" class="edge">
<title>Node3&#45;&gt;Node4</title>
<g id="a_edge4_Node000003_Node000004"><a xlink:title=" ">
<path fill="none" stroke="#63b8ff" d="M141.83,-110.33C134.3,-102.9 123.28,-92.04 114.02,-82.91"/>
<polygon fill="#63b8ff" stroke="#63b8ff" points="116.52,-80.45 106.94,-75.92 111.6,-85.44 116.52,-80.45"/>
</a>
</g>
</g>
<!-- Node5 -->
<g id="Node000005" class="node">
<title>Node5</title>
<g id="a_Node000005"><a xlink:title=" ">
<polygon fill="#e0e0e0" stroke="#999999" points="195.62,-74.5 139.88,-74.5 139.88,-55.25 195.62,-55.25 195.62,-74.5"/>
<text xml:space="preserve" text-anchor="middle" x="167.75" y="-61" font-family="Helvetica,sans-Serif" font-size="10.00">algorithm</text>
</a>
</g>
</g>
<!-- Node3&#45;&gt;Node5 -->
<g id="edge5_Node000003_Node000005" class="edge">
<title>Node3&#45;&gt;Node5</title>
<g id="a_edge5_Node000003_Node000005"><a xlink:title=" ">
<path fill="none" stroke="#63b8ff" d="M153.56,-110.33C155.69,-103.67 158.69,-94.24 161.39,-85.78"/>
<polygon fill="#63b8ff" stroke="#63b8ff" points="164.71,-86.89 164.42,-76.3 158.05,-84.76 164.71,-86.89"/>
</a>
</g>
</g>
<!-- Node6 -->
<g id="Node000006" class="node">
<title>Node6</title>
<g id="a_Node000006"><a xlink:href="_problem_8hh.html" target="_top" xlink:title=" ">
<polygon fill="white" stroke="#666666" points="318,-74.5 213.5,-74.5 213.5,-55.25 318,-55.25 318,-74.5"/>
<text xml:space="preserve" text-anchor="middle" x="265.75" y="-61" font-family="Helvetica,sans-Serif" font-size="10.00">IPsolver/Problem.hh</text>
</a>
</g>
</g>
<!-- Node3&#45;&gt;Node6 -->
<g id="edge6_Node000003_Node000006" class="edge">
<title>Node3&#45;&gt;Node6</title>
<g id="a_edge6_Node000003_Node000006"><a xlink:title=" ">
<path fill="none" stroke="#63b8ff" d="M170.26,-110.09C188.27,-101.75 215.27,-89.25 235.98,-79.66"/>
<polygon fill="#63b8ff" stroke="#63b8ff" points="237.17,-82.97 244.77,-75.59 234.23,-76.61 237.17,-82.97"/>
</a>
</g>
</g>
<!-- Node9 -->
<g id="Node000009" class="node">
<title>Node9</title>
<g id="a_Node000009"><a xlink:href="_finite_differences_8hh.html" target="_top" xlink:title=" ">
<polygon fill="white" stroke="#666666" points="479.12,-74.5 336.38,-74.5 336.38,-55.25 479.12,-55.25 479.12,-74.5"/>
<text xml:space="preserve" text-anchor="middle" x="407.75" y="-61" font-family="Helvetica,sans-Serif" font-size="10.00">IPsolver/FiniteDifferences.hh</text>
</a>
</g>
</g>
<!-- Node3&#45;&gt;Node9 -->
<g id="edge9_Node000003_Node000009" class="edge">
<title>Node3&#45;&gt;Node9</title>
<g id="a_edge9_Node000003_Node000009"><a xlink:title=" ">
<path fill="none" stroke="#63b8ff" d="M194.64,-110.03C238.34,-100.98 305.56,-87.05 352.79,-77.26"/>
<polygon fill="#63b8ff" stroke="#63b8ff" points="353.48,-80.69 362.56,-75.24 352.06,-73.84 353.48,-80.69"/>
</a>
</g>
</g>
<!-- Node7 -->
<g id="Node000007" class="node">
<title>Node7</title>
<g id="a_Node000007"><a xlink:title=" ">
<polygon fill="#e0e0e0" stroke="#999999" points="294.75,-19.25 236.75,-19.25 236.75,0 294.75,0 294.75,-19.25"/>
<text xml:space="preserve" text-anchor="middle" x="265.75" y="-5.75" font-family="Helvetica,sans-Serif" font-size="10.00">functional</text>
</a>
</g>
</g>
<!-- Node6&#45;&gt;Node7 -->
<g id="edge7_Node000006_Node000007" class="edge">
<title>Node6&#45;&gt;Node7</title>
<g id="a_edge7_Node000006_Node000007"><a xlink:title=" ">
<path fill="none" stroke="#63b8ff" d="M265.75,-55.08C265.75,-48.57 265.75,-39.42 265.75,-31.12"/>
<polygon fill="#63b8ff" stroke="#63b8ff" points="269.25,-31.12 265.75,-21.12 262.25,-31.12 269.25,-31.12"/>
</a>
</g>
</g>
<!-- Node8 -->
<g id="Node000008" class="node">
<title>Node8</title>
<g id="a_Node000008"><a xlink:title=" ">
<polygon fill="#e0e0e0" stroke="#999999" points="413.88,-19.25 341.62,-19.25 341.62,0 413.88,0 413.88,-19.25"/>
<text xml:space="preserve" text-anchor="middle" x="377.75" y="-5.75" font-family="Helvetica,sans-Serif" font-size="10.00">Eigen/Dense</text>
</a>
</g>
</g>
<!-- Node6&#45;&gt;Node8 -->
<g id="edge8_Node000006_Node000008" class="edge">
<title>Node6&#45;&gt;Node8</title>
<g id="a_edge8_Node000006_Node000008"><a xlink:title=" ">
<path fill="none" stroke="#63b8ff" d="M284.75,-54.84C302.21,-46.54 328.35,-34.11 348.47,-24.54"/>
<polygon fill="#63b8ff" stroke="#63b8ff" points="349.76,-27.81 357.29,-20.35 346.76,-21.49 349.76,-27.81"/>
</a>
</g>
</g>
<!-- Node9&#45;&gt;Node8 -->
<g id="edge10_Node000009_Node000008" class="edge">
<title>Node9&#45;&gt;Node8</title>
<g id="a_edge10_Node000009_Node000008"><a xlink:title=" ">
<path fill="none" stroke="#63b8ff" d="M402.8,-55.08C398.87,-48.11 393.24,-38.12 388.31,-29.37"/>
<polygon fill="#63b8ff" stroke="#63b8ff" points="391.51,-27.92 383.55,-20.93 385.41,-31.36 391.51,-27.92"/>
</a>
</g>
</g>
</g>
</svg>
