<?xml version="1.0" encoding="UTF-8" standalone="no"?>
<!DOCTYPE svg PUBLIC "-//W3C//DTD SVG 1.1//EN"
 "http://www.w3.org/Graphics/SVG/1.1/DTD/svg11.dtd">
<!-- Generated by graphviz version 12.2.1 (20241206.2353)
 -->
<!-- Title: include/IPsolver.hh Pages: 1 -->
<svg width="364pt" height="193pt"
 viewBox="0.00 0.00 364.00 193.00" xmlns="http://www.w3.org/2000/svg" xmlns:xlink="http://www.w3.org/1999/xlink">
<g id="graph0" class="graph" transform="scale(1 1) rotate(0) translate(4 189)">
<title>include/IPsolver.hh</title>
<!-- Node1 -->
<g id="Node000001" class="node">
<title>Node1</title>
<g id="a_Node000001"><a xlink:title=" ">
<polygon fill="#999999" stroke="#666666" points="146,-185 47.5,-185 47.5,-165.75 146,-165.75 146,-185"/>
<text text-anchor="middle" x="96.75" y="-171.5" font-family="Helvetica,sans-Serif" font-size="10.00">include/IPsolver.hh</text>
</a>
</g>
</g>
<!-- Node2 -->
<g id="Node000002" class="node">
<title>Node2</title>
<g id="a_Node000002"><a xlink:title=" ">
<polygon fill="#e0e0e0" stroke="#999999" points="53.5,-74.5 0,-74.5 0,-55.25 53.5,-55.25 53.5,-74.5"/>
<text text-anchor="middle" x="26.75" y="-61" font-family="Helvetica,sans-Serif" font-size="10.00">iostream</text>
</a>
</g>
</g>
<!-- Node1&#45;&gt;Node2 -->
<g id="edge1_Node000001_Node000002" class="edge">
<title>Node1&#45;&gt;Node2</title>
<g id="a_edge1_Node000001_Node000002"><a xlink:title=" ">
<path fill="none" stroke="#63b8ff" d="M91.02,-165.5C79.64,-147.85 53.96,-108.05 38.73,-84.45"/>
<polygon fill="#63b8ff" stroke="#63b8ff" points="41.74,-82.65 33.38,-76.15 35.86,-86.45 41.74,-82.65"/>
</a>
</g>
</g>
<!-- Node3 -->
<g id="Node000003" class="node">
<title>Node3</title>
<g id="a_Node000003"><a xlink:href="_solver_8hh.html" target="_top" xlink:title=" ">
<polygon fill="white" stroke="#666666" points="198.5,-129.75 103,-129.75 103,-110.5 198.5,-110.5 198.5,-129.75"/>
<text text-anchor="middle" x="150.75" y="-116.25" font-family="Helvetica,sans-Serif" font-size="10.00">IPsolver/Solver.hh</text>
</a>
</g>
</g>
<!-- Node1&#45;&gt;Node3 -->
<g id="edge2_Node000001_Node000003" class="edge">
<title>Node1&#45;&gt;Node3</title>
<g id="a_edge2_Node000001_Node000003"><a xlink:title=" ">
<path fill="none" stroke="#63b8ff" d="M105.67,-165.58C113.2,-158.15 124.22,-147.29 133.48,-138.16"/>
<polygon fill="#63b8ff" stroke="#63b8ff" points="135.9,-140.69 140.56,-131.17 130.98,-135.7 135.9,-140.69"/>
</a>
</g>
</g>
<!-- Node3&#45;&gt;Node2 -->
<g id="edge3_Node000003_Node000002" class="edge">
<title>Node3&#45;&gt;Node2</title>
<g id="a_edge3_Node000003_Node000002"><a xlink:title=" ">
<path fill="none" stroke="#63b8ff" d="M129.72,-110.09C110.12,-101.68 80.64,-89.02 58.24,-79.4"/>
<polygon fill="#63b8ff" stroke="#63b8ff" points="59.85,-76.28 49.28,-75.55 57.09,-82.71 59.85,-76.28"/>
</a>
</g>
</g>
<!-- Node4 -->
<g id="Node000004" class="node">
<title>Node4</title>
<g id="a_Node000004"><a xlink:title=" ">
<polygon fill="#e0e0e0" stroke="#999999" points="121.62,-74.5 71.88,-74.5 71.88,-55.25 121.62,-55.25 121.62,-74.5"/>
<text text-anchor="middle" x="96.75" y="-61" font-family="Helvetica,sans-Serif" font-size="10.00">iomanip</text>
</a>
</g>
</g>
<!-- Node3&#45;&gt;Node4 -->
<g id="edge4_Node000003_Node000004" class="edge">
<title>Node3&#45;&gt;Node4</title>
<g id="a_edge4_Node000003_Node000004"><a xlink:title=" ">
<path fill="none" stroke="#63b8ff" d="M141.83,-110.33C134.3,-102.9 123.28,-92.04 114.02,-82.91"/>
<polygon fill="#63b8ff" stroke="#63b8ff" points="116.52,-80.45 106.94,-75.92 111.6,-85.44 116.52,-80.45"/>
</a>
</g>
</g>
<!-- Node5 -->
<g id="Node000005" class="node">
<title>Node5</title>
<g id="a_Node000005"><a xlink:title=" ">
<polygon fill="#e0e0e0" stroke="#999999" points="195.62,-74.5 139.88,-74.5 139.88,-55.25 195.62,-55.25 195.62,-74.5"/>
<text text-anchor="middle" x="167.75" y="-61" font-family="Helvetica,sans-Serif" font-size="10.00">algorithm</text>
</a>
</g>
</g>
<!-- Node3&#45;&gt;Node5 -->
<g id="edge5_Node000003_Node000005" class="edge">
<title>Node3&#45;&gt;Node5</title>
<g id="a_edge5_Node000003_Node000005"><a xlink:title=" ">
<path fill="none" stroke="#63b8ff" d="M153.56,-110.33C155.69,-103.67 158.69,-94.24 161.39,-85.78"/>
<polygon fill="#63b8ff" stroke="#63b8ff" points="164.71,-86.89 164.42,-76.3 158.05,-84.76 164.71,-86.89"/>
</a>
</g>
</g>
<!-- Node6 -->
<g id="Node000006" class="node">
<title>Node6</title>
<g id="a_Node000006"><a xlink:title=" ">
<polygon fill="#e0e0e0" stroke="#999999" points="299.88,-19.25 227.62,-19.25 227.62,0 299.88,0 299.88,-19.25"/>
<text text-anchor="middle" x="263.75" y="-5.75" font-family="Helvetica,sans-Serif" font-size="10.00">Eigen/Dense</text>
</a>
</g>
</g>
<!-- Node3&#45;&gt;Node6 -->
<g id="edge6_Node000003_Node000006" class="edge">
<title>Node3&#45;&gt;Node6</title>
<g id="a_edge6_Node000003_Node000006"><a xlink:title=" ">
<path fill="none" stroke="#63b8ff" d="M162.3,-110.32C173.49,-101.61 190.79,-87.71 204.75,-74.5 220.46,-59.64 237.06,-41.41 248.63,-28.24"/>
<polygon fill="#63b8ff" stroke="#63b8ff" points="251.18,-30.64 255.1,-20.8 245.9,-26.05 251.18,-30.64"/>
</a>
</g>
</g>
<!-- Node7 -->
<g id="Node000007" class="node">
<title>Node7</title>
<g id="a_Node000007"><a xlink:href="_problem_8hh.html" target="_top" xlink:title=" ">
<polygon fill="white" stroke="#666666" points="356,-74.5 251.5,-74.5 251.5,-55.25 356,-55.25 356,-74.5"/>
<text text-anchor="middle" x="303.75" y="-61" font-family="Helvetica,sans-Serif" font-size="10.00">IPsolver/Problem.hh</text>
</a>
</g>
</g>
<!-- Node3&#45;&gt;Node7 -->
<g id="edge7_Node000003_Node000007" class="edge">
<title>Node3&#45;&gt;Node7</title>
<g id="a_edge7_Node000003_Node000007"><a xlink:title=" ">
<path fill="none" stroke="#63b8ff" d="M176.7,-110.09C201.54,-101.45 239.25,-88.32 267.13,-78.62"/>
<polygon fill="#63b8ff" stroke="#63b8ff" points="267.94,-82.04 276.24,-75.45 265.64,-75.43 267.94,-82.04"/>
</a>
</g>
</g>
<!-- Node7&#45;&gt;Node6 -->
<g id="edge8_Node000007_Node000006" class="edge">
<title>Node7&#45;&gt;Node6</title>
<g id="a_edge8_Node000007_Node000006"><a xlink:title=" ">
<path fill="none" stroke="#63b8ff" d="M297.14,-55.08C291.79,-47.96 284.07,-37.68 277.4,-28.8"/>
<polygon fill="#63b8ff" stroke="#63b8ff" points="280.21,-26.71 271.41,-20.82 274.62,-30.92 280.21,-26.71"/>
</a>
</g>
</g>
</g>
</svg>
