<?xml version="1.0" encoding="UTF-8" standalone="no"?>
<!DOCTYPE svg PUBLIC "-//W3C//DTD SVG 1.1//EN"
 "http://www.w3.org/Graphics/SVG/1.1/DTD/svg11.dtd">
<!-- Generated by graphviz version 14.0.2 (20251019.1705)
 -->
<!-- Title: include/IPsolver/Problem.hh Pages: 1 -->
<svg width="156pt" height="83pt"
 viewBox="0.00 0.00 156.00 83.00" xmlns="http://www.w3.org/2000/svg" xmlns:xlink="http://www.w3.org/1999/xlink">
<g id="graph0" class="graph" transform="scale(1 1) rotate(0) translate(4 78.5)">
<title>include/IPsolver/Problem.hh</title>
<!-- Node1 -->
<g id="Node000001" class="node">
<title>Node1</title>
<g id="a_Node000001"><a xlink:title=" ">
<polygon fill="#999999" stroke="#666666" points="139.12,-74.5 0.88,-74.5 0.88,-55.25 139.12,-55.25 139.12,-74.5"/>
<text xml:space="preserve" text-anchor="middle" x="70" y="-61" font-family="Helvetica,sans-Serif" font-size="10.00">include/IPsolver/Problem.hh</text>
</a>
</g>
</g>
<!-- Node2 -->
<g id="Node000002" class="node">
<title>Node2</title>
<g id="a_Node000002"><a xlink:title=" ">
<polygon fill="#e0e0e0" stroke="#999999" points="58,-19.25 0,-19.25 0,0 58,0 58,-19.25"/>
<text xml:space="preserve" text-anchor="middle" x="29" y="-5.75" font-family="Helvetica,sans-Serif" font-size="10.00">functional</text>
</a>
</g>
</g>
<!-- Node1&#45;&gt;Node2 -->
<g id="edge1_Node000001_Node000002" class="edge">
<title>Node1&#45;&gt;Node2</title>
<g id="a_edge1_Node000001_Node000002"><a xlink:title=" ">
<path fill="none" stroke="#63b8ff" d="M63.23,-55.08C57.68,-47.88 49.66,-37.46 42.77,-28.51"/>
<polygon fill="#63b8ff" stroke="#63b8ff" points="45.71,-26.6 36.84,-20.81 40.17,-30.87 45.71,-26.6"/>
</a>
</g>
</g>
<!-- Node3 -->
<g id="Node000003" class="node">
<title>Node3</title>
<g id="a_Node000003"><a xlink:title=" ">
<polygon fill="#e0e0e0" stroke="#999999" points="148.12,-19.25 75.88,-19.25 75.88,0 148.12,0 148.12,-19.25"/>
<text xml:space="preserve" text-anchor="middle" x="112" y="-5.75" font-family="Helvetica,sans-Serif" font-size="10.00">Eigen/Dense</text>
</a>
</g>
</g>
<!-- Node1&#45;&gt;Node3 -->
<g id="edge2_Node000001_Node000003" class="edge">
<title>Node1&#45;&gt;Node3</title>
<g id="a_edge2_Node000001_Node000003"><a xlink:title=" ">
<path fill="none" stroke="#63b8ff" d="M76.94,-55.08C82.62,-47.88 90.84,-37.46 97.89,-28.51"/>
<polygon fill="#63b8ff" stroke="#63b8ff" points="100.53,-30.82 103.98,-20.8 95.04,-26.48 100.53,-30.82"/>
</a>
</g>
</g>
</g>
</svg>
