<?xml version="1.0" encoding="UTF-8" standalone="no"?>
<!DOCTYPE svg PUBLIC "-//W3C//DTD SVG 1.1//EN"
 "http://www.w3.org/Graphics/SVG/1.1/DTD/svg11.dtd">
<!-- Generated by graphviz version 13.1.2 (20250808.2320)
 -->
<!-- Title: include/IPsolver/Problem.hh Pages: 1 -->
<svg width="156pt" height="83pt"
 viewBox="0.00 0.00 156.00 83.00" xmlns="http://www.w3.org/2000/svg" xmlns:xlink="http://www.w3.org/1999/xlink">
<g id="graph0" class="graph" transform="scale(1 1) rotate(0) translate(4 78.5)">
<title>include/IPsolver/Problem.hh</title>
<!-- Node1 -->
<g id="Node000001" class="node">
<title>Node1</title>
<g id="a_Node000001"><a xlink:title=" ">
<polygon fill="#999999" stroke="#666666" points="146.25,-74.5 8,-74.5 8,-55.25 146.25,-55.25 146.25,-74.5"/>
<text xml:space="preserve" text-anchor="middle" x="77.12" y="-61" font-family="Helvetica,sans-Serif" font-size="10.00">include/IPsolver/Problem.hh</text>
</a>
</g>
</g>
<!-- Node2 -->
<g id="Node000002" class="node">
<title>Node2</title>
<g id="a_Node000002"><a xlink:title=" ">
<polygon fill="#e0e0e0" stroke="#999999" points="72.25,-19.25 0,-19.25 0,0 72.25,0 72.25,-19.25"/>
<text xml:space="preserve" text-anchor="middle" x="36.12" y="-5.75" font-family="Helvetica,sans-Serif" font-size="10.00">Eigen/Dense</text>
</a>
</g>
</g>
<!-- Node1&#45;&gt;Node2 -->
<g id="edge1_Node000001_Node000002" class="edge">
<title>Node1&#45;&gt;Node2</title>
<g id="a_edge1_Node000001_Node000002"><a xlink:title=" ">
<path fill="none" stroke="#63b8ff" d="M70.35,-55.08C64.81,-47.88 56.78,-37.46 49.9,-28.51"/>
<polygon fill="#63b8ff" stroke="#63b8ff" points="52.84,-26.6 43.97,-20.81 47.29,-30.87 52.84,-26.6"/>
</a>
</g>
</g>
<!-- Node3 -->
<g id="Node000003" class="node">
<title>Node3</title>
<g id="a_Node000003"><a xlink:title=" ">
<polygon fill="#e0e0e0" stroke="#999999" points="148.12,-19.25 90.12,-19.25 90.12,0 148.12,0 148.12,-19.25"/>
<text xml:space="preserve" text-anchor="middle" x="119.12" y="-5.75" font-family="Helvetica,sans-Serif" font-size="10.00">functional</text>
</a>
</g>
</g>
<!-- Node1&#45;&gt;Node3 -->
<g id="edge2_Node000001_Node000003" class="edge">
<title>Node1&#45;&gt;Node3</title>
<g id="a_edge2_Node000001_Node000003"><a xlink:title=" ">
<path fill="none" stroke="#63b8ff" d="M84.06,-55.08C89.74,-47.88 97.96,-37.46 105.02,-28.51"/>
<polygon fill="#63b8ff" stroke="#63b8ff" points="107.66,-30.82 111.1,-20.8 102.16,-26.48 107.66,-30.82"/>
</a>
</g>
</g>
</g>
</svg>
