<?xml version="1.0" encoding="UTF-8" standalone="no"?>
<!DOCTYPE svg PUBLIC "-//W3C//DTD SVG 1.1//EN"
 "http://www.w3.org/Graphics/SVG/1.1/DTD/svg11.dtd">
<!-- Generated by graphviz version 14.0.2 (20251019.1705)
 -->
<!-- Title: include/IPsolver/Solver.hh Pages: 1 -->
<svg width="487pt" height="138pt"
 viewBox="0.00 0.00 487.00 138.00" xmlns="http://www.w3.org/2000/svg" xmlns:xlink="http://www.w3.org/1999/xlink">
<g id="graph0" class="graph" transform="scale(1 1) rotate(0) translate(4 133.75)">
<title>include/IPsolver/Solver.hh</title>
<!-- Node1 -->
<g id="Node000001" class="node">
<title>Node1</title>
<g id="a_Node000001"><a xlink:title=" ">
<polygon fill="#999999" stroke="#666666" points="232.38,-129.75 103.12,-129.75 103.12,-110.5 232.38,-110.5 232.38,-129.75"/>
<text xml:space="preserve" text-anchor="middle" x="167.75" y="-116.25" font-family="Helvetica,sans-Serif" font-size="10.00">include/IPsolver/Solver.hh</text>
</a>
</g>
</g>
<!-- Node2 -->
<g id="Node000002" class="node">
<title>Node2</title>
<g id="a_Node000002"><a xlink:title=" ">
<polygon fill="#e0e0e0" stroke="#999999" points="53.5,-74.5 0,-74.5 0,-55.25 53.5,-55.25 53.5,-74.5"/>
<text xml:space="preserve" text-anchor="middle" x="26.75" y="-61" font-family="Helvetica,sans-Serif" font-size="10.00">iostream</text>
</a>
</g>
</g>
<!-- Node1&#45;&gt;Node2 -->
<g id="edge1_Node000001_Node000002" class="edge">
<title>Node1&#45;&gt;Node2</title>
<g id="a_edge1_Node000001_Node000002"><a xlink:title=" ">
<path fill="none" stroke="#63b8ff" d="M143.83,-110.09C121.25,-101.56 87.11,-88.67 61.52,-79.01"/>
<polygon fill="#63b8ff" stroke="#63b8ff" points="62.79,-75.75 52.2,-75.49 60.32,-82.29 62.79,-75.75"/>
</a>
</g>
</g>
<!-- Node3 -->
<g id="Node000003" class="node">
<title>Node3</title>
<g id="a_Node000003"><a xlink:title=" ">
<polygon fill="#e0e0e0" stroke="#999999" points="121.62,-74.5 71.88,-74.5 71.88,-55.25 121.62,-55.25 121.62,-74.5"/>
<text xml:space="preserve" text-anchor="middle" x="96.75" y="-61" font-family="Helvetica,sans-Serif" font-size="10.00">iomanip</text>
</a>
</g>
</g>
<!-- Node1&#45;&gt;Node3 -->
<g id="edge2_Node000001_Node000003" class="edge">
<title>Node1&#45;&gt;Node3</title>
<g id="a_edge2_Node000001_Node000003"><a xlink:title=" ">
<path fill="none" stroke="#63b8ff" d="M155.71,-110.09C145.34,-102.32 130.15,-90.92 117.78,-81.65"/>
<polygon fill="#63b8ff" stroke="#63b8ff" points="119.93,-78.88 109.83,-75.68 115.73,-84.48 119.93,-78.88"/>
</a>
</g>
</g>
<!-- Node4 -->
<g id="Node000004" class="node">
<title>Node4</title>
<g id="a_Node000004"><a xlink:title=" ">
<polygon fill="#e0e0e0" stroke="#999999" points="195.62,-74.5 139.88,-74.5 139.88,-55.25 195.62,-55.25 195.62,-74.5"/>
<text xml:space="preserve" text-anchor="middle" x="167.75" y="-61" font-family="Helvetica,sans-Serif" font-size="10.00">algorithm</text>
</a>
</g>
</g>
<!-- Node1&#45;&gt;Node4 -->
<g id="edge3_Node000001_Node000004" class="edge">
<title>Node1&#45;&gt;Node4</title>
<g id="a_edge3_Node000001_Node000004"><a xlink:title=" ">
<path fill="none" stroke="#63b8ff" d="M167.75,-110.33C167.75,-103.82 167.75,-94.67 167.75,-86.37"/>
<polygon fill="#63b8ff" stroke="#63b8ff" points="171.25,-86.37 167.75,-76.37 164.25,-86.37 171.25,-86.37"/>
</a>
</g>
</g>
<!-- Node5 -->
<g id="Node000005" class="node">
<title>Node5</title>
<g id="a_Node000005"><a xlink:href="_problem_8hh.html" target="_top" xlink:title=" ">
<polygon fill="white" stroke="#666666" points="318,-74.5 213.5,-74.5 213.5,-55.25 318,-55.25 318,-74.5"/>
<text xml:space="preserve" text-anchor="middle" x="265.75" y="-61" font-family="Helvetica,sans-Serif" font-size="10.00">IPsolver/Problem.hh</text>
</a>
</g>
</g>
<!-- Node1&#45;&gt;Node5 -->
<g id="edge4_Node000001_Node000005" class="edge">
<title>Node1&#45;&gt;Node5</title>
<g id="a_edge4_Node000001_Node000005"><a xlink:title=" ">
<path fill="none" stroke="#63b8ff" d="M184.37,-110.09C199.44,-101.91 221.89,-89.71 239.4,-80.19"/>
<polygon fill="#63b8ff" stroke="#63b8ff" points="240.6,-83.52 247.71,-75.68 237.26,-77.37 240.6,-83.52"/>
</a>
</g>
</g>
<!-- Node8 -->
<g id="Node000008" class="node">
<title>Node8</title>
<g id="a_Node000008"><a xlink:href="_finite_differences_8hh.html" target="_top" xlink:title=" ">
<polygon fill="white" stroke="#666666" points="479.12,-74.5 336.38,-74.5 336.38,-55.25 479.12,-55.25 479.12,-74.5"/>
<text xml:space="preserve" text-anchor="middle" x="407.75" y="-61" font-family="Helvetica,sans-Serif" font-size="10.00">IPsolver/FiniteDifferences.hh</text>
</a>
</g>
</g>
<!-- Node1&#45;&gt;Node8 -->
<g id="edge7_Node000001_Node000008" class="edge">
<title>Node1&#45;&gt;Node8</title>
<g id="a_edge7_Node000001_Node000008"><a xlink:title=" ">
<path fill="none" stroke="#63b8ff" d="M208.73,-110.03C249.38,-101.01 311.79,-87.17 355.87,-77.39"/>
<polygon fill="#63b8ff" stroke="#63b8ff" points="356.45,-80.84 365.46,-75.26 354.94,-74.01 356.45,-80.84"/>
</a>
</g>
</g>
<!-- Node6 -->
<g id="Node000006" class="node">
<title>Node6</title>
<g id="a_Node000006"><a xlink:title=" ">
<polygon fill="#e0e0e0" stroke="#999999" points="294.75,-19.25 236.75,-19.25 236.75,0 294.75,0 294.75,-19.25"/>
<text xml:space="preserve" text-anchor="middle" x="265.75" y="-5.75" font-family="Helvetica,sans-Serif" font-size="10.00">functional</text>
</a>
</g>
</g>
<!-- Node5&#45;&gt;Node6 -->
<g id="edge5_Node000005_Node000006" class="edge">
<title>Node5&#45;&gt;Node6</title>
<g id="a_edge5_Node000005_Node000006"><a xlink:title=" ">
<path fill="none" stroke="#63b8ff" d="M265.75,-55.08C265.75,-48.57 265.75,-39.42 265.75,-31.12"/>
<polygon fill="#63b8ff" stroke="#63b8ff" points="269.25,-31.12 265.75,-21.12 262.25,-31.12 269.25,-31.12"/>
</a>
</g>
</g>
<!-- Node7 -->
<g id="Node000007" class="node">
<title>Node7</title>
<g id="a_Node000007"><a xlink:title=" ">
<polygon fill="#e0e0e0" stroke="#999999" points="413.88,-19.25 341.62,-19.25 341.62,0 413.88,0 413.88,-19.25"/>
<text xml:space="preserve" text-anchor="middle" x="377.75" y="-5.75" font-family="Helvetica,sans-Serif" font-size="10.00">Eigen/Dense</text>
</a>
</g>
</g>
<!-- Node5&#45;&gt;Node7 -->
<g id="edge6_Node000005_Node000007" class="edge">
<title>Node5&#45;&gt;Node7</title>
<g id="a_edge6_Node000005_Node000007"><a xlink:title=" ">
<path fill="none" stroke="#63b8ff" d="M284.75,-54.84C302.21,-46.54 328.35,-34.11 348.47,-24.54"/>
<polygon fill="#63b8ff" stroke="#63b8ff" points="349.76,-27.81 357.29,-20.35 346.76,-21.49 349.76,-27.81"/>
</a>
</g>
</g>
<!-- Node8&#45;&gt;Node7 -->
<g id="edge8_Node000008_Node000007" class="edge">
<title>Node8&#45;&gt;Node7</title>
<g id="a_edge8_Node000008_Node000007"><a xlink:title=" ">
<path fill="none" stroke="#63b8ff" d="M402.8,-55.08C398.87,-48.11 393.24,-38.12 388.31,-29.37"/>
<polygon fill="#63b8ff" stroke="#63b8ff" points="391.51,-27.92 383.55,-20.93 385.41,-31.36 391.51,-27.92"/>
</a>
</g>
</g>
</g>
</svg>
