<?xml version="1.0" encoding="UTF-8" standalone="no"?>
<!DOCTYPE svg PUBLIC "-//W3C//DTD SVG 1.1//EN"
 "http://www.w3.org/Graphics/SVG/1.1/DTD/svg11.dtd">
<!-- Generated by graphviz version 12.2.1 (20241206.2353)
 -->
<!-- Title: include/IPsolver/Solver.hh Pages: 1 -->
<svg width="364pt" height="138pt"
 viewBox="0.00 0.00 364.00 137.75" xmlns="http://www.w3.org/2000/svg" xmlns:xlink="http://www.w3.org/1999/xlink">
<g id="graph0" class="graph" transform="scale(1 1) rotate(0) translate(4 133.75)">
<title>include/IPsolver/Solver.hh</title>
<!-- Node1 -->
<g id="Node000001" class="node">
<title>Node1</title>
<g id="a_Node000001"><a xlink:title=" ">
<polygon fill="#999999" stroke="#666666" points="232.38,-129.75 103.12,-129.75 103.12,-110.5 232.38,-110.5 232.38,-129.75"/>
<text text-anchor="middle" x="167.75" y="-116.25" font-family="Helvetica,sans-Serif" font-size="10.00">include/IPsolver/Solver.hh</text>
</a>
</g>
</g>
<!-- Node2 -->
<g id="Node000002" class="node">
<title>Node2</title>
<g id="a_Node000002"><a xlink:title=" ">
<polygon fill="#e0e0e0" stroke="#999999" points="53.5,-74.5 0,-74.5 0,-55.25 53.5,-55.25 53.5,-74.5"/>
<text text-anchor="middle" x="26.75" y="-61" font-family="Helvetica,sans-Serif" font-size="10.00">iostream</text>
</a>
</g>
</g>
<!-- Node1&#45;&gt;Node2 -->
<g id="edge1_Node000001_Node000002" class="edge">
<title>Node1&#45;&gt;Node2</title>
<g id="a_edge1_Node000001_Node000002"><a xlink:title=" ">
<path fill="none" stroke="#63b8ff" d="M143.83,-110.09C121.25,-101.56 87.11,-88.67 61.52,-79.01"/>
<polygon fill="#63b8ff" stroke="#63b8ff" points="62.79,-75.75 52.2,-75.49 60.32,-82.29 62.79,-75.75"/>
</a>
</g>
</g>
<!-- Node3 -->
<g id="Node000003" class="node">
<title>Node3</title>
<g id="a_Node000003"><a xlink:title=" ">
<polygon fill="#e0e0e0" stroke="#999999" points="121.62,-74.5 71.88,-74.5 71.88,-55.25 121.62,-55.25 121.62,-74.5"/>
<text text-anchor="middle" x="96.75" y="-61" font-family="Helvetica,sans-Serif" font-size="10.00">iomanip</text>
</a>
</g>
</g>
<!-- Node1&#45;&gt;Node3 -->
<g id="edge2_Node000001_Node000003" class="edge">
<title>Node1&#45;&gt;Node3</title>
<g id="a_edge2_Node000001_Node000003"><a xlink:title=" ">
<path fill="none" stroke="#63b8ff" d="M155.71,-110.09C145.34,-102.32 130.15,-90.92 117.78,-81.65"/>
<polygon fill="#63b8ff" stroke="#63b8ff" points="119.93,-78.88 109.83,-75.68 115.73,-84.48 119.93,-78.88"/>
</a>
</g>
</g>
<!-- Node4 -->
<g id="Node000004" class="node">
<title>Node4</title>
<g id="a_Node000004"><a xlink:title=" ">
<polygon fill="#e0e0e0" stroke="#999999" points="195.62,-74.5 139.88,-74.5 139.88,-55.25 195.62,-55.25 195.62,-74.5"/>
<text text-anchor="middle" x="167.75" y="-61" font-family="Helvetica,sans-Serif" font-size="10.00">algorithm</text>
</a>
</g>
</g>
<!-- Node1&#45;&gt;Node4 -->
<g id="edge3_Node000001_Node000004" class="edge">
<title>Node1&#45;&gt;Node4</title>
<g id="a_edge3_Node000001_Node000004"><a xlink:title=" ">
<path fill="none" stroke="#63b8ff" d="M167.75,-110.33C167.75,-103.82 167.75,-94.67 167.75,-86.37"/>
<polygon fill="#63b8ff" stroke="#63b8ff" points="171.25,-86.37 167.75,-76.37 164.25,-86.37 171.25,-86.37"/>
</a>
</g>
</g>
<!-- Node5 -->
<g id="Node000005" class="node">
<title>Node5</title>
<g id="a_Node000005"><a xlink:title=" ">
<polygon fill="#e0e0e0" stroke="#999999" points="299.88,-19.25 227.62,-19.25 227.62,0 299.88,0 299.88,-19.25"/>
<text text-anchor="middle" x="263.75" y="-5.75" font-family="Helvetica,sans-Serif" font-size="10.00">Eigen/Dense</text>
</a>
</g>
</g>
<!-- Node1&#45;&gt;Node5 -->
<g id="edge4_Node000001_Node000005" class="edge">
<title>Node1&#45;&gt;Node5</title>
<g id="a_edge4_Node000001_Node000005"><a xlink:title=" ">
<path fill="none" stroke="#63b8ff" d="M175.61,-110.25C191.43,-92.36 227.39,-51.72 248.16,-28.25"/>
<polygon fill="#63b8ff" stroke="#63b8ff" points="250.78,-30.57 254.78,-20.76 245.53,-25.93 250.78,-30.57"/>
</a>
</g>
</g>
<!-- Node6 -->
<g id="Node000006" class="node">
<title>Node6</title>
<g id="a_Node000006"><a xlink:href="_problem_8hh.html" target="_top" xlink:title=" ">
<polygon fill="white" stroke="#666666" points="356,-74.5 251.5,-74.5 251.5,-55.25 356,-55.25 356,-74.5"/>
<text text-anchor="middle" x="303.75" y="-61" font-family="Helvetica,sans-Serif" font-size="10.00">IPsolver/Problem.hh</text>
</a>
</g>
</g>
<!-- Node1&#45;&gt;Node6 -->
<g id="edge5_Node000001_Node000006" class="edge">
<title>Node1&#45;&gt;Node6</title>
<g id="a_edge5_Node000001_Node000006"><a xlink:title=" ">
<path fill="none" stroke="#63b8ff" d="M190.82,-110.09C212.51,-101.6 245.23,-88.79 269.88,-79.14"/>
<polygon fill="#63b8ff" stroke="#63b8ff" points="271.12,-82.41 279.16,-75.5 268.57,-75.89 271.12,-82.41"/>
</a>
</g>
</g>
<!-- Node6&#45;&gt;Node5 -->
<g id="edge6_Node000006_Node000005" class="edge">
<title>Node6&#45;&gt;Node5</title>
<g id="a_edge6_Node000006_Node000005"><a xlink:title=" ">
<path fill="none" stroke="#63b8ff" d="M297.14,-55.08C291.79,-47.96 284.07,-37.68 277.4,-28.8"/>
<polygon fill="#63b8ff" stroke="#63b8ff" points="280.21,-26.71 271.41,-20.82 274.62,-30.92 280.21,-26.71"/>
</a>
</g>
</g>
</g>
</svg>
